<?xml version="1.0" standalone="no"?><!DOCTYPE svg PUBLIC "-//W3C//DTD SVG 1.1//EN" "http://www.w3.org/Graphics/SVG/1.1/DTD/svg11.dtd"><svg t="1724032589294" class="icon" viewBox="0 0 1024 1024" version="1.1" xmlns="http://www.w3.org/2000/svg" p-id="4709" width="256" height="256" xmlns:xlink="http://www.w3.org/1999/xlink"><path d="M561.76 471.36c-28.16 0-42.24-22.88-53.44-41.28-11.52-18.72-18.08-27.36-28.8-27.36-28.8 0-39.36 29.12-39.68 30.24-2.88 8.32-11.84 12.8-20.32 9.92-8.32-2.88-12.8-11.84-10.08-20.16 0.64-2.08 18.08-52 70.08-52 29.76 0 44.32 23.68 56 42.72 10.88 17.6 16.96 25.92 26.24 25.92 27.68 0 39.84-30.56 40-30.88 3.2-8.32 12.48-12.32 20.64-9.12 8.16 3.2 12.32 12.48 9.12 20.64-0.8 2.08-20.48 51.36-69.76 51.36z" fill="#1afa29" p-id="4710"></path><path d="M664.16 255.68a223.264 223.264 0 0 0-173.44-55.2c-102.72 11.36-185.12 94.4-195.84 197.28-8.8 84.8 30.56 165.44 100.96 210.56v94.72c0 17.6 14.4 32 32 32h176c17.6 0 32-14.4 32-32v-94.72c63.52-40.64 102.24-110.72 102.24-187.04 0.16-63.04-26.88-123.52-73.92-165.6z m-75.04 305.76c-10.56 5.6-17.12 16.48-17.12 28.32v81.12h-112v-81.12c0-11.84-6.56-22.88-17.12-28.32-57.92-30.24-90.88-92-84.16-157.12 7.52-73.12 66.08-132.16 139.2-140.32 45.76-4.96 89.76 8.8 123.68 39.36a158.88 158.88 0 0 1 52.8 117.92 158.16 158.16 0 0 1-85.28 140.16zM516 183.04c17.6 0 32-14.4 32-32v-32c0-17.6-14.4-32-32-32s-32 14.4-32 32v32a32 32 0 0 0 32 32zM781.92 197.12c-12.48-12.48-32.8-12.48-45.28 0l-22.56 22.56a32.064 32.064 0 0 0 22.56 54.72c8.16 0 16.32-3.2 22.56-9.44l22.56-22.56c12.64-12.48 12.64-32.8 0.16-45.28zM317.92 264.96c12.48-12.48 12.48-32.8 0-45.28l-22.56-22.56c-12.48-12.48-32.8-12.48-45.28 0-12.48 12.48-12.48 32.8 0 45.28l22.56 22.56a31.888 31.888 0 0 0 45.28 0zM604 759.04h-176c-17.6 0-32 14.4-32 32s14.4 32 32 32h176c17.6 0 32-14.4 32-32s-14.4-32-32-32z" fill="#1afa29" p-id="4711"></path></svg>